<svg width="40" height="30" viewBox="0 0 40 30" fill="none" xmlns="http://www.w3.org/2000/svg">
<path d="M19.285 3.92992H20.7105C21.6095 7.999 26.3141 11.1107 31.9819 11.1107C33.1599 11.1182 34.3339 10.9841 35.4751 10.7117C36.1991 12.2005 36.5728 13.8165 36.571 15.451V15.9856C36.5664 18.7785 35.373 21.4556 33.2526 23.4294C31.1322 25.4032 28.2581 26.5123 25.261 26.5134H14.7388C13.2526 26.5134 11.781 26.2405 10.408 25.7104C9.03505 25.1803 7.78759 24.4033 6.73691 23.4238C5.68624 22.4443 4.85293 21.2815 4.28459 20.0018C3.71625 18.7221 3.42401 17.3506 3.42457 15.9656V15.4311C3.42214 13.796 3.79736 12.1797 4.52474 10.6918C5.66579 10.9646 6.83992 11.0987 8.01789 11.0907C13.6814 11.1027 18.386 7.999 19.285 3.92992Z" fill="white"/>
<path d="M27.774 18.2754C28.4478 18.2754 28.994 17.7664 28.994 17.1385C28.994 16.5106 28.4478 16.0015 27.774 16.0015C27.1002 16.0015 26.554 16.5106 26.554 17.1385C26.554 17.7664 27.1002 18.2754 27.774 18.2754Z" fill="#00384A"/>
<path d="M12.2261 18.2754C12.8999 18.2754 13.4462 17.7664 13.4462 17.1385C13.4462 16.5106 12.8999 16.0015 12.2261 16.0015C11.5523 16.0015 11.0061 16.5106 11.0061 17.1385C11.0061 17.7664 11.5523 18.2754 12.2261 18.2754Z" fill="#00384A"/>
<path d="M0.856166 19.9988C0.650075 19.9988 0.450899 19.9296 0.295206 19.8037C0.139513 19.6779 0.0377527 19.5039 0.00860693 19.3138C-0.0205388 19.1237 0.0248862 18.9301 0.136542 18.7687C0.248199 18.6073 0.418592 18.4888 0.61644 18.435L5.28254 17.1545C5.49529 17.1083 5.71893 17.1397 5.90767 17.2422C6.0964 17.3447 6.23596 17.5105 6.29778 17.7058C6.35959 17.901 6.33899 18.1109 6.24018 18.2924C6.14137 18.474 5.97183 18.6135 5.76627 18.6824L1.10017 19.9669C1.02065 19.9873 0.938636 19.998 0.856166 19.9988ZM1.69521 22.9748C1.49158 22.9718 1.29579 22.9012 1.143 22.7757C0.990211 22.6502 0.890421 22.4781 0.861547 22.2902C0.832674 22.1023 0.876609 21.911 0.985464 21.7506C1.09432 21.5902 1.26096 21.4712 1.45548 21.415L6.12158 20.1305C6.33956 20.0707 6.5741 20.0941 6.7736 20.1954C6.9731 20.2968 7.12121 20.4679 7.18536 20.671C7.24951 20.8742 7.22443 21.0927 7.11565 21.2786C7.00687 21.4646 6.8233 21.6026 6.60531 21.6624L1.93921 22.9748C1.85836 22.9865 1.77606 22.9865 1.69521 22.9748ZM39.1438 19.9988C39.0614 19.998 38.9793 19.9873 38.8998 19.9669L34.2337 18.6824C34.1201 18.6577 34.0131 18.6117 33.9193 18.5472C33.8255 18.4826 33.7468 18.4009 33.6881 18.307C33.6293 18.2131 33.5918 18.109 33.5778 18.0011C33.5638 17.8932 33.5736 17.7837 33.6066 17.6795C33.6396 17.5752 33.6951 17.4784 33.7698 17.3948C33.8444 17.3113 33.9365 17.2429 34.0405 17.1937C34.1445 17.1445 34.2582 17.1157 34.3746 17.1089C34.4911 17.1022 34.6077 17.1177 34.7175 17.1545L39.3836 18.435C39.5814 18.4888 39.7518 18.6073 39.8635 18.7687C39.9751 18.9301 40.0205 19.1237 39.9914 19.3138C39.9622 19.5039 39.8605 19.6779 39.7048 19.8037C39.5491 19.9296 39.3499 19.9988 39.1438 19.9988ZM38.3048 22.9748C38.2222 22.976 38.1399 22.9652 38.0608 22.9429L33.3947 21.6624C33.1767 21.6026 32.9931 21.4646 32.8843 21.2786C32.7756 21.0927 32.7505 20.8742 32.8146 20.671C32.8788 20.4679 33.0269 20.2968 33.2264 20.1954C33.4259 20.0941 33.6604 20.0707 33.8784 20.1305L38.5445 21.415C38.739 21.4712 38.9057 21.5902 39.0145 21.7506C39.1234 21.911 39.1673 22.1023 39.1384 22.2902C39.1096 22.4781 39.0098 22.6502 38.857 22.7757C38.7042 22.9012 38.5084 22.9718 38.3048 22.9748Z" fill="#00384A"/>
<path d="M32.1318 0.802307C32.7494 1.77498 33.1443 2.85626 33.2917 3.97809C33.439 5.09993 33.3356 6.23805 32.9879 7.32083C34.0316 8.29557 34.8784 9.43743 35.4879 10.6918C34.3468 10.9642 33.1727 11.0983 31.9948 11.0907C26.327 11.0907 21.6224 7.98704 20.7234 3.90997H24.2422C24.589 3.90997 24.94 3.90997 25.2825 3.95386C26.0959 2.98189 27.1343 2.19365 28.3203 1.64795C29.5063 1.10225 30.8092 0.813182 32.1318 0.802307Z" fill="#E74E15"/>
<path d="M14.7261 3.9738C15.0686 3.94986 15.411 3.92992 15.7706 3.92992H19.2852C18.3862 7.999 13.6816 11.1107 8.01805 11.1107C6.84008 11.1186 5.66595 10.9846 4.5249 10.7117C5.12677 9.45533 5.97127 8.3127 7.01634 7.34077C6.66972 6.25786 6.56685 5.1199 6.71418 3.99821C6.8615 2.87653 7.25585 1.79529 7.8725 0.82225C9.19585 0.832526 10.4996 1.12131 11.6864 1.66703C12.8731 2.21276 13.9122 3.00131 14.7261 3.9738Z" fill="#F59F00"/>
<path d="M25.2611 27.3112H14.7389C11.5117 27.307 8.41815 26.1102 6.13662 23.9833C3.85509 21.8564 2.5719 18.973 2.56851 15.9656V15.4311C2.55957 13.6825 2.95679 11.9527 3.73289 10.3607C4.30715 9.16049 5.08959 8.05664 6.04881 7.09344C5.45901 4.81862 5.83799 2.41933 7.10618 0.399389C7.18125 0.278219 7.28919 0.177575 7.41918 0.107556C7.54916 0.037536 7.69662 0.000601931 7.84676 0.000458419C9.22457 0.0163163 10.583 0.305178 11.8318 0.847858C13.0806 1.39054 14.1912 2.17462 15.0899 3.14802H24.8844C25.7824 2.17492 26.8923 1.391 28.1404 0.848323C29.3885 0.305645 30.7462 0.0166251 32.1233 0.000458419C32.275 -0.00446116 32.4252 0.030297 32.5569 0.100799C32.6885 0.171302 32.7963 0.274733 32.8682 0.399389C34.1404 2.41794 34.5211 4.81823 33.9298 7.09344C36.1778 9.36476 37.4263 12.3412 37.4272 15.4311V15.9656C37.425 18.9726 36.1427 21.856 33.8619 23.983C31.581 26.11 28.4879 27.307 25.2611 27.3112ZM8.35618 1.62011C7.43801 3.31392 7.25111 5.27117 7.83392 7.08945C7.87934 7.22801 7.88342 7.37549 7.84571 7.51606C7.808 7.65662 7.72993 7.78496 7.61988 7.88731C5.48169 9.89404 4.28146 12.6071 4.28084 15.4351V15.9696C4.28423 18.5534 5.38715 21.0305 7.34768 22.8575C9.30821 24.6845 11.9663 25.7123 14.7389 25.7155H25.2611C28.0337 25.7113 30.6914 24.6824 32.6511 22.8547C34.6108 21.0269 35.7126 18.5494 35.7149 15.9656V15.4311C35.7212 13.9052 35.3737 12.396 34.6961 11.0069C34.1326 9.83853 33.3449 8.77589 32.3716 7.87135C32.2623 7.76858 32.185 7.64005 32.1481 7.49951C32.1111 7.35897 32.1159 7.2117 32.1618 7.07349C32.7455 5.2553 32.5586 3.29773 31.6396 1.60416C30.5297 1.68323 29.45 1.97828 28.47 2.47027C27.4901 2.96226 26.6317 3.64026 25.9504 4.4605C25.8642 4.56546 25.7514 4.64884 25.6222 4.70315C25.4929 4.75746 25.3512 4.781 25.2098 4.77166C24.9058 4.74773 24.5548 4.72778 24.2295 4.72778H15.7706C15.4409 4.72778 15.107 4.72778 14.786 4.77166C14.6445 4.781 14.5028 4.75746 14.3736 4.70315C14.2443 4.64884 14.1315 4.56546 14.0454 4.4605C13.3624 3.64319 12.5033 2.96822 11.5235 2.47902C10.5436 1.98982 9.4647 1.69724 8.35618 1.62011Z" fill="#00384A"/>
<path d="M12.7826 29.1902C12.7826 29.1902 6.7895 28.516 9.05833 25.0453C11.3272 21.5746 14.8631 26.6849 14.8631 26.6849" fill="white"/>
<path d="M12.7826 29.988H12.6798C12.2989 29.9481 8.95125 29.5173 7.97094 27.5945C7.65416 26.9841 7.45724 25.9708 8.34337 24.6224C9.2295 23.274 10.2227 23.0267 10.9333 23.0267H10.9632C13.3048 23.0267 15.3554 25.911 15.5822 26.2421C15.6502 26.33 15.6982 26.4299 15.7234 26.5356C15.7486 26.6414 15.7504 26.7508 15.7287 26.8572C15.707 26.9637 15.6623 27.0649 15.5973 27.1547C15.5323 27.2445 15.4483 27.321 15.3505 27.3796C15.2528 27.4382 15.1432 27.4776 15.0285 27.4954C14.9139 27.5132 14.7965 27.5091 14.6836 27.4833C14.5707 27.4575 14.4646 27.4106 14.3718 27.3453C14.279 27.2801 14.2015 27.1979 14.1439 27.1038C13.5831 26.3059 12.072 24.6224 10.9632 24.6224C10.8134 24.6224 10.3511 24.6224 9.81597 25.4442C9.23378 26.3338 9.4521 26.7527 9.52488 26.8923C10.0215 27.8458 12.1918 28.3006 12.911 28.3803C13.1381 28.393 13.3504 28.4893 13.5014 28.6479C13.6523 28.8065 13.7294 29.0145 13.7158 29.2261C13.7022 29.4377 13.5989 29.6356 13.4287 29.7762C13.2585 29.9169 13.0353 29.9888 12.8083 29.9761L12.7826 29.988Z" fill="#00384A"/>
<path d="M27.9539 29.1902C27.9539 29.1902 33.947 28.516 31.6782 25.0453C29.4093 21.5746 25.8862 26.6849 25.8862 26.6849" fill="white"/>
<path d="M27.9537 29.988C27.7267 30.0007 27.5035 29.9288 27.3333 29.7882C27.1631 29.6475 27.0598 29.4496 27.0462 29.238C27.0326 29.0264 27.1097 28.8185 27.2606 28.6598C27.4116 28.5012 27.6239 28.405 27.851 28.3923C28.5702 28.3125 30.7405 27.8577 31.2371 26.9043C31.3099 26.7647 31.5282 26.3458 30.946 25.4562C30.4109 24.6583 29.9486 24.6344 29.7945 24.6344C28.6858 24.6344 27.1746 26.3059 26.6138 27.1157C26.4857 27.2815 26.2942 27.3951 26.0788 27.4332C25.8634 27.4713 25.6406 27.431 25.4562 27.3205C25.2718 27.21 25.1399 27.0379 25.0876 26.8394C25.0354 26.641 25.0669 26.4315 25.1755 26.254C25.4024 25.9229 27.4529 23.0387 29.7945 23.0387H29.8244C30.5351 23.0387 31.5625 23.3259 32.3929 24.6344C33.2234 25.9429 33.0822 26.9961 32.7654 27.6064C31.7722 29.5133 28.4246 29.9441 28.0565 30L27.9537 29.988Z" fill="#00384A"/>
</svg>
