<svg width="30" height="24" viewBox="0 0 30 24" fill="none" xmlns="http://www.w3.org/2000/svg">
<path d="M20.8306 14.6204C21.3359 14.6204 21.7456 14.2131 21.7456 13.7108C21.7456 13.2085 21.3359 12.8012 20.8306 12.8012C20.3252 12.8012 19.9155 13.2085 19.9155 13.7108C19.9155 14.2131 20.3252 14.6204 20.8306 14.6204Z" fill="#372400"/>
<path d="M9.16966 14.6204C9.67502 14.6204 10.0847 14.2131 10.0847 13.7108C10.0847 13.2085 9.67502 12.8012 9.16966 12.8012C8.66431 12.8012 8.25464 13.2085 8.25464 13.7108C8.25464 14.2131 8.66431 14.6204 9.16966 14.6204Z" fill="#372400"/>
<path d="M0.642125 15.9991C0.487556 15.9991 0.338174 15.9436 0.221405 15.843C0.104635 15.7423 0.0283145 15.6031 0.0064552 15.451C-0.0154041 15.2989 0.0186647 15.1441 0.102407 15.015C0.186149 14.8858 0.313944 14.791 0.46233 14.748L3.9619 13.7236C4.12147 13.6867 4.2892 13.7118 4.43075 13.7938C4.5723 13.8757 4.67697 14.0084 4.72333 14.1646C4.76969 14.3208 4.75424 14.4887 4.68013 14.634C4.60603 14.7792 4.47887 14.8908 4.3247 14.9459L0.82513 15.9735C0.765487 15.9898 0.703977 15.9984 0.642125 15.9991ZM1.27141 18.3799C1.11868 18.3774 0.971845 18.3209 0.857252 18.2205C0.742658 18.1202 0.667816 17.9825 0.646161 17.8322C0.624506 17.6819 0.657457 17.5288 0.739098 17.4005C0.820739 17.2722 0.945723 17.177 1.09161 17.132L4.59118 16.1044C4.75467 16.0566 4.93058 16.0753 5.0802 16.1564C5.22983 16.2375 5.34091 16.3743 5.38902 16.5368C5.43713 16.6993 5.41832 16.8742 5.33674 17.0229C5.25515 17.1717 5.11747 17.2821 4.95398 17.3299L1.45441 18.3799C1.39377 18.3892 1.33205 18.3892 1.27141 18.3799ZM29.3579 15.9991C29.296 15.9984 29.2345 15.9898 29.1749 15.9735L25.6753 14.9459C25.5901 14.9262 25.5099 14.8894 25.4395 14.8377C25.3691 14.7861 25.3101 14.7207 25.2661 14.6456C25.222 14.5705 25.1939 14.4872 25.1834 14.4009C25.1729 14.3145 25.1802 14.227 25.205 14.1436C25.2297 14.0602 25.2714 13.9827 25.3273 13.9159C25.3833 13.8491 25.4524 13.7943 25.5304 13.755C25.6084 13.7156 25.6937 13.6926 25.781 13.6872C25.8683 13.6818 25.9558 13.6942 26.0381 13.7236L29.5377 14.748C29.6861 14.791 29.8138 14.8858 29.8976 15.015C29.9813 15.1441 30.0154 15.2989 29.9935 15.451C29.9717 15.6031 29.8954 15.7423 29.7786 15.843C29.6618 15.9436 29.5124 15.9991 29.3579 15.9991ZM28.7286 18.3799C28.6666 18.3808 28.6049 18.3722 28.5456 18.3543L25.046 17.3299C24.8825 17.2821 24.7448 17.1717 24.6633 17.0229C24.5817 16.8742 24.5629 16.6993 24.611 16.5368C24.6591 16.3743 24.7702 16.2375 24.9198 16.1564C25.0694 16.0753 25.2453 16.0566 25.4088 16.1044L28.9084 17.132C29.0543 17.177 29.1793 17.2722 29.2609 17.4005C29.3425 17.5288 29.3755 17.6819 29.3538 17.8322C29.3322 17.9825 29.2573 18.1202 29.1427 18.2205C29.0282 18.3209 28.8813 18.3774 28.7286 18.3799Z" fill="#372400"/>
<path d="M24.0988 0.641846C24.562 1.41999 24.8582 2.28501 24.9687 3.18248C25.0792 4.07995 25.0016 4.99044 24.7409 5.85666C25.5236 6.63646 26.1588 7.54995 26.6159 8.55343C25.76 8.77134 24.8795 8.8786 23.996 8.87257C19.7452 8.87257 16.2167 6.38963 15.5425 3.12798H18.1816C18.4417 3.12798 18.7049 3.12798 18.9618 3.16308C19.5718 2.38551 20.3507 1.75492 21.2401 1.31836C22.1296 0.881803 23.1068 0.650546 24.0988 0.641846Z" fill="#E74E15"/>
<path d="M11.0445 3.17904C11.3013 3.1599 11.5582 3.14394 11.8278 3.14394H14.4638C13.7895 6.39921 10.2611 8.88853 6.01342 8.88853C5.12994 8.89492 4.24934 8.78765 3.39355 8.56939C3.84496 7.56427 4.47833 6.65017 5.26213 5.87262C5.00217 5.00629 4.92502 4.09593 5.03551 3.19858C5.14601 2.30123 5.44177 1.43623 5.90426 0.657806C6.89676 0.666027 7.87457 0.897055 8.76465 1.33363C9.65473 1.77021 10.4341 2.40106 11.0445 3.17904Z" fill="#F59F00"/>
<path d="M18.9459 21.849H11.0542C8.63381 21.8456 6.31361 20.8881 4.60247 19.1866C2.89132 17.4851 1.92893 15.1784 1.92638 12.7725V12.3449C1.91968 10.946 2.21759 9.56219 2.79967 8.28854C3.23036 7.32839 3.8172 6.44531 4.53661 5.67475C4.09425 3.8549 4.37849 1.93546 5.32963 0.319511C5.38594 0.222575 5.46689 0.14206 5.56438 0.0860446C5.66187 0.0300288 5.77247 0.000481545 5.88507 0.000366735C6.91843 0.0130531 7.93724 0.244142 8.87385 0.678287C9.81046 1.11243 10.6434 1.73969 11.3174 2.51841H18.6633C19.3368 1.73994 20.1693 1.1128 21.1053 0.678658C22.0414 0.244516 23.0596 0.0133001 24.0925 0.000366735C24.2063 -0.00356893 24.3189 0.0242376 24.4176 0.0806394C24.5164 0.137041 24.5972 0.219786 24.6511 0.319511C25.6053 1.93435 25.8908 3.85458 25.4474 5.67475C27.1333 7.49181 28.0697 9.87295 28.0704 12.3449V12.7725C28.0687 15.1781 27.1071 17.4848 25.3964 19.1864C23.6858 20.888 21.3659 21.8456 18.9459 21.849ZM6.26713 1.29609C5.57851 2.65113 5.43834 4.21694 5.87544 5.67156C5.90951 5.78241 5.91256 5.90039 5.88428 6.01285C5.856 6.1253 5.79745 6.22797 5.71491 6.30985C4.11127 7.91523 3.2111 10.0857 3.21063 12.3481V12.7757C3.21318 14.8427 4.04036 16.8244 5.51076 18.286C6.98116 19.7476 8.97471 20.5699 11.0542 20.5724H18.9459C21.0253 20.569 23.0185 19.746 24.4883 18.2837C25.9581 16.8215 26.7845 14.8395 26.7862 12.7725V12.3449C26.7909 11.1242 26.5303 9.91683 26.0221 8.80555C25.5995 7.87083 25.0087 7.02071 24.2787 6.29708C24.1967 6.21487 24.1388 6.11204 24.111 5.99961C24.0833 5.88717 24.0869 5.76936 24.1214 5.65879C24.5591 4.20424 24.4189 2.63819 23.7297 1.28333C22.8973 1.34659 22.0875 1.58263 21.3525 1.97622C20.6176 2.36981 19.9738 2.9122 19.4628 3.5684C19.3982 3.65237 19.3136 3.71907 19.2166 3.76252C19.1197 3.80597 19.0134 3.8248 18.9073 3.81733C18.6794 3.79818 18.4161 3.78222 18.1721 3.78222H11.8279C11.5807 3.78222 11.3303 3.78222 11.0895 3.81733C10.9834 3.8248 10.8771 3.80597 10.7802 3.76252C10.6832 3.71907 10.5986 3.65237 10.534 3.5684C10.0218 2.91456 9.37748 2.37458 8.64259 1.98322C7.90771 1.59186 7.09852 1.3578 6.26713 1.29609Z" fill="#372400"/>
<path d="M9.58706 23.9904H9.51C9.22426 23.9585 6.71356 23.6138 5.97833 22.0756C5.74074 21.5873 5.59305 20.7766 6.25765 19.6979C6.92225 18.6192 7.66711 18.4214 8.20007 18.4214H8.22255C9.97875 18.4214 11.5166 20.7288 11.6868 20.9937C11.7378 21.064 11.7738 21.1439 11.7927 21.2285C11.8116 21.3131 11.8129 21.4006 11.7966 21.4858C11.7804 21.5709 11.7469 21.6519 11.6981 21.7237C11.6493 21.7956 11.5864 21.8568 11.513 21.9037C11.4397 21.9505 11.3575 21.9821 11.2715 21.9963C11.1855 22.0106 11.0975 22.0073 11.0128 21.9867C10.9282 21.966 10.8486 21.9284 10.779 21.8762C10.7094 21.824 10.6512 21.7583 10.608 21.683C10.1874 21.0447 9.0541 19.6979 8.22255 19.6979C8.11018 19.6979 7.76343 19.6979 7.3621 20.3554C6.92546 21.0671 7.0892 21.4022 7.14378 21.5139C7.51621 22.2766 9.14399 22.6404 9.68338 22.7043C9.85368 22.7144 10.0129 22.7914 10.1261 22.9183C10.2393 23.0452 10.2972 23.2116 10.287 23.3809C10.2768 23.5501 10.1993 23.7085 10.0717 23.821C9.94401 23.9335 9.77662 23.991 9.60632 23.9808L9.58706 23.9904Z" fill="#372400"/>
<path d="M20.9654 23.9904C20.7951 24.0006 20.6277 23.9431 20.5001 23.8306C20.3724 23.718 20.295 23.5597 20.2848 23.3904C20.2746 23.2212 20.3324 23.0548 20.4456 22.9279C20.5588 22.801 20.7181 22.724 20.8884 22.7139C21.4277 22.65 23.0555 22.2862 23.428 21.5234C23.4825 21.4117 23.6463 21.0766 23.2096 20.365C22.8083 19.7267 22.4616 19.7075 22.346 19.7075C21.5144 19.7075 20.3811 21.0447 19.9605 21.6926C19.8644 21.8252 19.7208 21.9161 19.5592 21.9466C19.3977 21.9771 19.2306 21.9448 19.0923 21.8564C18.9539 21.768 18.855 21.6303 18.8159 21.4716C18.7767 21.3128 18.8003 21.1452 18.8817 21.0032C19.0519 20.7383 20.5898 18.4309 22.346 18.4309H22.3685C22.9014 18.4309 23.672 18.6607 24.2948 19.7075C24.9177 20.7543 24.8117 21.5968 24.5742 22.0851C23.8293 23.6106 21.3186 23.9553 21.0425 24L20.9654 23.9904Z" fill="#372400"/>
</svg>
