<svg width="30" height="30" viewBox="0 0 30 30" fill="none" xmlns="http://www.w3.org/2000/svg">
<path d="M15 30C23.2843 30 30 23.2843 30 15C30 6.71573 23.2843 0 15 0C6.71573 0 0 6.71573 0 15C0 23.2843 6.71573 30 15 30Z" fill="#E0E0E0"/>
<path d="M17.7649 19H13.2371C11.8484 18.998 10.5172 18.4283 9.53545 17.4159C8.55369 16.4035 8.00153 15.0311 8.00006 13.5996V13.3451C7.99622 12.5128 8.16714 11.6894 8.50111 10.9316C8.74821 10.3603 9.0849 9.83492 9.49766 9.37644C9.24386 8.29364 9.40694 7.15159 9.95265 6.19011C9.98496 6.13243 10.0314 6.08452 10.0873 6.0512C10.1433 6.01787 10.2067 6.00029 10.2713 6.00022C10.8642 6.00777 11.4487 6.14526 11.9861 6.40358C12.5235 6.66189 13.0014 7.03511 13.3881 7.49844H17.6027C17.9892 7.03525 18.4668 6.66211 19.0038 6.4038C19.5409 6.14549 20.1251 6.00791 20.7177 6.00022C20.783 5.99788 20.8476 6.01442 20.9042 6.04798C20.9609 6.08154 21.0073 6.13077 21.0382 6.19011C21.5856 7.15093 21.7495 8.29345 21.495 9.37644C22.4623 10.4576 22.9996 11.8743 23 13.3451V13.5996C22.999 15.0309 22.4473 16.4033 21.4658 17.4158C20.4843 18.4282 19.1533 18.998 17.7649 19Z" fill="#818181"/>
<path d="M24.5 23.5C25 26.7 19.9706 29 15 29C10.0294 29 6 27.2 5.5 24C5.5 19.6922 10.0294 16 15 16C19.9706 16 24.5 19.1922 24.5 23.5Z" fill="#818181"/>
</svg>
